<svg id="my-svg" width="100%" xmlns="http://www.w3.org/2000/svg" xmlns:xlink="http://www.w3.org/1999/xlink" class="flowchart" style="max-width: 1675.46px; background-color: white;" viewBox="0.025440216064453125 0 1675.4610595703125 951" role="graphics-document document" aria-roledescription="flowchart-v2"><style>#my-svg{font-family:"trebuchet ms",verdana,arial,sans-serif;font-size:16px;fill:#333;}@keyframes edge-animation-frame{from{stroke-dashoffset:0;}}@keyframes dash{to{stroke-dashoffset:0;}}#my-svg .edge-animation-slow{stroke-dasharray:9,5!important;stroke-dashoffset:900;animation:dash 50s linear infinite;stroke-linecap:round;}#my-svg .edge-animation-fast{stroke-dasharray:9,5!important;stroke-dashoffset:900;animation:dash 20s linear infinite;stroke-linecap:round;}#my-svg .error-icon{fill:#552222;}#my-svg .error-text{fill:#552222;stroke:#552222;}#my-svg .edge-thickness-normal{stroke-width:1px;}#my-svg .edge-thickness-thick{stroke-width:3.5px;}#my-svg .edge-pattern-solid{stroke-dasharray:0;}#my-svg .edge-thickness-invisible{stroke-width:0;fill:none;}#my-svg .edge-pattern-dashed{stroke-dasharray:3;}#my-svg .edge-pattern-dotted{stroke-dasharray:2;}#my-svg .marker{fill:#333333;stroke:#333333;}#my-svg .marker.cross{stroke:#333333;}#my-svg svg{font-family:"trebuchet ms",verdana,arial,sans-serif;font-size:16px;}#my-svg p{margin:0;}#my-svg .label{font-family:"trebuchet ms",verdana,arial,sans-serif;color:#333;}#my-svg .cluster-label text{fill:#333;}#my-svg .cluster-label span{color:#333;}#my-svg .cluster-label span p{background-color:transparent;}#my-svg .label text,#my-svg span{fill:#333;color:#333;}#my-svg .node rect,#my-svg .node circle,#my-svg .node ellipse,#my-svg .node polygon,#my-svg .node path{fill:#ECECFF;stroke:#9370DB;stroke-width:1px;}#my-svg .rough-node .label text,#my-svg .node .label text,#my-svg .image-shape .label,#my-svg .icon-shape .label{text-anchor:middle;}#my-svg .node .katex path{fill:#000;stroke:#000;stroke-width:1px;}#my-svg .rough-node .label,#my-svg .node .label,#my-svg .image-shape .label,#my-svg .icon-shape .label{text-align:center;}#my-svg .node.clickable{cursor:pointer;}#my-svg .root .anchor path{fill:#333333!important;stroke-width:0;stroke:#333333;}#my-svg .arrowheadPath{fill:#333333;}#my-svg .edgePaths .path{stroke:#333333;stroke-width:1px;}#my-svg .flowchart-link{stroke:#333333;fill:none;}#my-svg .edgeLabel{background-color:rgba(232,232,232, 0.8);text-align:center;}#my-svg .edgeLabel p{background-color:rgba(232,232,232, 0.8);}#my-svg .edgeLabel rect{opacity:0.5;background-color:rgba(232,232,232, 0.8);fill:rgba(232,232,232, 0.8);}#my-svg .labelBkg{background-color:rgba(232, 232, 232, 0.5);}#my-svg .cluster rect{fill:#ffffde;stroke:#aaaa33;stroke-width:1px;}#my-svg .cluster text{fill:#333;}#my-svg .cluster span{color:#333;}#my-svg .node .collapsed-indicator{fill:#aaaa33;stroke:none;opacity:0.6;}#my-svg .node .collapsed-separator{stroke:#aaaa33;stroke-width:0.75px;}#my-svg div.mermaidTooltip{position:absolute;text-align:center;max-width:200px;padding:2px;font-family:"trebuchet ms",verdana,arial,sans-serif;font-size:12px;background:hsl(80, 100%, 96.2745098039%);border:1px solid #aaaa33;border-radius:2px;pointer-events:none;z-index:100;}#my-svg .flowchartTitleText{text-anchor:middle;font-size:18px;fill:#333;}#my-svg rect.text{fill:none;stroke-width:0;}#my-svg .icon-shape,#my-svg .image-shape{background-color:rgba(232,232,232, 0.8);text-align:center;}#my-svg .icon-shape p,#my-svg .image-shape p{background-color:rgba(232,232,232, 0.8);padding:2px;}#my-svg .icon-shape .label rect,#my-svg .image-shape .label rect{opacity:0.5;background-color:rgba(232,232,232, 0.8);fill:rgba(232,232,232, 0.8);}#my-svg .label-icon{display:inline-block;height:1em;overflow:visible;vertical-align:-0.125em;}#my-svg .node .label-icon path{fill:currentColor;stroke:revert;stroke-width:revert;}#my-svg .node .neo-node{stroke:#9370DB;}#my-svg [data-look="neo"].node rect,#my-svg [data-look="neo"].cluster rect,#my-svg [data-look="neo"].node polygon{stroke:#9370DB;filter:drop-shadow(1px 2px 2px rgba(185, 185, 185, 1));}#my-svg [data-look="neo"].swimlane.cluster rect{filter:none;}#my-svg [data-look="neo"].node path{stroke:#9370DB;stroke-width:1px;}#my-svg [data-look="neo"].node .outer-path{filter:drop-shadow(1px 2px 2px rgba(185, 185, 185, 1));}#my-svg [data-look="neo"].node .neo-line path{stroke:#9370DB;filter:none;}#my-svg [data-look="neo"].node circle{stroke:#9370DB;filter:drop-shadow(1px 2px 2px rgba(185, 185, 185, 1));}#my-svg [data-look="neo"].node circle .state-start{fill:#000000;}#my-svg [data-look="neo"].icon-shape .icon{fill:#9370DB;filter:drop-shadow(1px 2px 2px rgba(185, 185, 185, 1));}#my-svg [data-look="neo"].icon-shape .icon-neo path{stroke:#9370DB;filter:drop-shadow(1px 2px 2px rgba(185, 185, 185, 1));}#my-svg :root{--mermaid-font-family:"trebuchet ms",verdana,arial,sans-serif;}</style><g><marker id="my-svg_flowchart-v2-pointEnd" class="marker flowchart-v2" viewBox="0 0 10 10" refX="5" refY="5" markerUnits="userSpaceOnUse" markerWidth="8" markerHeight="8" orient="auto"><path d="M 0 0 L 10 5 L 0 10 z" class="arrowMarkerPath" style="stroke-width: 1; stroke-dasharray: 1, 0;"/></marker><marker id="my-svg_flowchart-v2-pointStart" class="marker flowchart-v2" viewBox="0 0 10 10" refX="4.5" refY="5" markerUnits="userSpaceOnUse" markerWidth="8" markerHeight="8" orient="auto"><path d="M 0 5 L 10 10 L 10 0 z" class="arrowMarkerPath" style="stroke-width: 1; stroke-dasharray: 1, 0;"/></marker><marker id="my-svg_flowchart-v2-pointEnd-margin" class="marker flowchart-v2" viewBox="0 0 11.5 14" refX="11.5" refY="7" markerUnits="userSpaceOnUse" markerWidth="10.5" markerHeight="14" orient="auto"><path d="M 0 0 L 11.5 7 L 0 14 z" class="arrowMarkerPath" style="stroke-width: 0; stroke-dasharray: 1, 0;"/></marker><marker id="my-svg_flowchart-v2-pointStart-margin" class="marker flowchart-v2" viewBox="0 0 11.5 14" refX="1" refY="7" markerUnits="userSpaceOnUse" markerWidth="11.5" markerHeight="14" orient="auto"><polygon points="0,7 11.5,14 11.5,0" class="arrowMarkerPath" style="stroke-width: 0; stroke-dasharray: 1, 0;"/></marker><marker id="my-svg_flowchart-v2-circleEnd" class="marker flowchart-v2" viewBox="0 0 10 10" refX="11" refY="5" markerUnits="userSpaceOnUse" markerWidth="11" markerHeight="11" orient="auto"><circle cx="5" cy="5" r="5" class="arrowMarkerPath" style="stroke-width: 1; stroke-dasharray: 1, 0;"/></marker><marker id="my-svg_flowchart-v2-circleStart" class="marker flowchart-v2" viewBox="0 0 10 10" refX="-1" refY="5" markerUnits="userSpaceOnUse" markerWidth="11" markerHeight="11" orient="auto"><circle cx="5" cy="5" r="5" class="arrowMarkerPath" style="stroke-width: 1; stroke-dasharray: 1, 0;"/></marker><marker id="my-svg_flowchart-v2-circleEnd-margin" class="marker flowchart-v2" viewBox="0 0 10 10" refY="5" refX="12.25" markerUnits="userSpaceOnUse" markerWidth="14" markerHeight="14" orient="auto"><circle cx="5" cy="5" r="5" class="arrowMarkerPath" style="stroke-width: 0; stroke-dasharray: 1, 0;"/></marker><marker id="my-svg_flowchart-v2-circleStart-margin" class="marker flowchart-v2" viewBox="0 0 10 10" refX="-2" refY="5" markerUnits="userSpaceOnUse" markerWidth="14" markerHeight="14" orient="auto"><circle cx="5" cy="5" r="5" class="arrowMarkerPath" style="stroke-width: 0; stroke-dasharray: 1, 0;"/></marker><marker id="my-svg_flowchart-v2-crossEnd" class="marker cross flowchart-v2" viewBox="0 0 11 11" refX="12" refY="5.2" markerUnits="userSpaceOnUse" markerWidth="11" markerHeight="11" orient="auto"><path d="M 1,1 l 9,9 M 10,1 l -9,9" class="arrowMarkerPath" style="stroke-width: 2; stroke-dasharray: 1, 0;"/></marker><marker id="my-svg_flowchart-v2-crossStart" class="marker cross flowchart-v2" viewBox="0 0 11 11" refX="-1" refY="5.2" markerUnits="userSpaceOnUse" markerWidth="11" markerHeight="11" orient="auto"><path d="M 1,1 l 9,9 M 10,1 l -9,9" class="arrowMarkerPath" style="stroke-width: 2; stroke-dasharray: 1, 0;"/></marker><marker id="my-svg_flowchart-v2-crossEnd-margin" class="marker cross flowchart-v2" viewBox="0 0 15 15" refX="17.7" refY="7.5" markerUnits="userSpaceOnUse" markerWidth="12" markerHeight="12" orient="auto"><path d="M 1,1 L 14,14 M 1,14 L 14,1" class="arrowMarkerPath" style="stroke-width: 2.5;"/></marker><marker id="my-svg_flowchart-v2-crossStart-margin" class="marker cross flowchart-v2" viewBox="0 0 15 15" refX="-3.5" refY="7.5" markerUnits="userSpaceOnUse" markerWidth="12" markerHeight="12" orient="auto"><path d="M 1,1 L 14,14 M 1,14 L 14,1" class="arrowMarkerPath" style="stroke-width: 2.5; stroke-dasharray: 1, 0;"/></marker><g class="root"><g class="clusters"><g class="cluster" id="my-svg-workers" data-look="classic"><rect style="" x="153.20520782470703" y="740" width="1514.28125" height="203"/><g class="cluster-label" transform="translate(880.713020324707, 740)"><g><rect class="background" style="stroke: none"/><text y="-10.1" style=""><tspan class="text-outer-tspan row" x="0" y="-0.1em" dy="1.1em"><tspan font-style="normal" class="text-inner-tspan" font-weight="normal">Workers</tspan></tspan></text></g></g></g><g class="cluster" id="my-svg-zone" data-look="classic"><rect style="" x="153.20520782470703" y="8" width="358.15625" height="712"/><g class="cluster-label" transform="translate(313.99817657470703, 8)"><g><rect class="background" style="stroke: none"/><text y="-10.1" style=""><tspan class="text-outer-tspan row" x="0" y="-0.1em" dy="1.1em"><tspan font-style="normal" class="text-inner-tspan" font-weight="normal">Zone</tspan></tspan></text></g></g></g></g><g class="edgePaths"><path d="M103.205,104.5L107.372,104.5C111.539,104.5,119.872,104.5,128.205,104.5C136.539,104.5,144.872,104.5,173.052,104.581C201.231,104.662,249.257,104.824,273.27,104.905L297.283,104.986" id="my-svg-L_client_cloudflare_workers_custom_domain_sparql_0" class="edge-thickness-normal edge-pattern-solid edge-thickness-normal edge-pattern-solid flowchart-link" style=";" data-edge="true" data-et="edge" data-id="L_client_cloudflare_workers_custom_domain_sparql_0" data-points="W3sieCI6MTAzLjIwNTIwNzgyNDcwNzAzLCJ5IjoxMDQuNX0seyJ4IjoxMjguMjA1MjA3ODI0NzA3MDMsInkiOjEwNC41fSx7IngiOjE1My4yMDUyMDc4MjQ3MDcwMywieSI6MTA0LjV9LHsieCI6MzAxLjI4MzMzMjgyNDcwNzAzLCJ5IjoxMDV9XQ==" data-look="classic" marker-end="url(#my-svg_flowchart-v2-pointEnd)"/><path d="M364.283,105L388.796,104.917C413.309,104.833,462.335,104.667,491.015,220.208C519.695,335.75,528.028,567,553.706,687.705C579.384,808.411,622.407,818.571,643.918,823.652L665.429,828.732" id="my-svg-L_cloudflare_workers_custom_domain_sparql_cloudflare_workers_deployment_sparql_0" class="edge-thickness-normal edge-pattern-solid edge-thickness-normal edge-pattern-solid flowchart-link" style=";" data-edge="true" data-et="edge" data-id="L_cloudflare_workers_custom_domain_sparql_cloudflare_workers_deployment_sparql_0" data-points="W3sieCI6MzY0LjI4MzMzMjgyNDcwNzAzLCJ5IjoxMDV9LHsieCI6NTExLjM2MTQ1NzgyNDcwNzAzLCJ5IjoxMDQuNX0seyJ4Ijo1MzYuMzYxNDU3ODI0NzA3LCJ5Ijo3OTguMjV9LHsieCI6NjY5LjMyMjM5NTMyNDcwNywieSI6ODI5LjY1MTQ1MDg5ODE3NTF9XQ==" data-look="classic" marker-end="url(#my-svg_flowchart-v2-pointEnd)"/><path d="M1328.565,837L1347.148,836.917C1365.731,836.833,1402.898,836.667,1434.6,836.663C1466.302,836.659,1492.539,836.817,1505.657,836.897L1518.776,836.976" id="my-svg-L_terraform_data_worker_bootstrap_cloudflare_worker_sparql_0" class="edge-thickness-normal edge-pattern-solid edge-thickness-normal edge-pattern-solid flowchart-link" style=";" data-edge="true" data-et="edge" data-id="L_terraform_data_worker_bootstrap_cloudflare_worker_sparql_0" data-points="W3sieCI6MTMyOC41NjQ1ODI4MjQ3MDcsInkiOjgzN30seyJ4IjoxNDQwLjA2NDU4MjgyNDcwNywieSI6ODM2LjV9LHsieCI6MTUyMi43NzU1MjAzMjQ3MDcsInkiOjgzN31d" data-look="classic" marker-end="url(#my-svg_flowchart-v2-pointEnd)"/><path d="M1040.674,837L1059.406,836.917C1078.137,836.833,1115.601,836.667,1152.416,836.664C1189.231,836.661,1225.398,836.821,1243.481,836.902L1261.565,836.982" id="my-svg-L_cloudflare_worker_version_sparql_terraform_data_worker_bootstrap_0" class="edge-thickness-normal edge-pattern-solid edge-thickness-normal edge-pattern-solid flowchart-link" style=";" data-edge="true" data-et="edge" data-id="L_cloudflare_worker_version_sparql_terraform_data_worker_bootstrap_0" data-points="W3sieCI6MTA0MC42NzM5NTc4MjQ3MDcsInkiOjgzN30seyJ4IjoxMTUzLjA2NDU4MjgyNDcwNywieSI6ODM2LjV9LHsieCI6MTI2NS41NjQ1ODI4MjQ3MDcsInkiOjgzN31d" data-look="classic" marker-end="url(#my-svg_flowchart-v2-pointEnd)"/><path d="M732.322,837L754.316,836.917C776.309,836.833,820.296,836.667,860.522,836.664C900.747,836.661,937.21,836.822,955.442,836.902L973.674,836.982" id="my-svg-L_cloudflare_workers_deployment_sparql_cloudflare_worker_version_sparql_0" class="edge-thickness-normal edge-pattern-solid edge-thickness-normal edge-pattern-solid flowchart-link" style=";" data-edge="true" data-et="edge" data-id="L_cloudflare_workers_deployment_sparql_cloudflare_worker_version_sparql_0" data-points="W3sieCI6NzMyLjMyMjM5NTMyNDcwNywieSI6ODM3fSx7IngiOjg2NC4yODMzMzI4MjQ3MDcsInkiOjgzNi41fSx7IngiOjk3Ny42NzM5NTc4MjQ3MDcsInkiOjgzN31d" data-look="classic" marker-end="url(#my-svg_flowchart-v2-pointEnd)"/><path d="M364.283,847L388.796,846.917C413.309,846.833,462.335,846.667,491.015,846.583C519.695,846.5,528.028,846.5,535.779,846.356C543.529,846.212,550.697,845.924,554.281,845.78L557.865,845.636" id="my-svg-L_terraform_data_container_app_cloudflare_workers_deployment_sparql_0" class="edge-thickness-normal edge-pattern-solid edge-thickness-normal edge-pattern-solid flowchart-link" style=";" data-edge="true" data-et="edge" data-id="L_terraform_data_container_app_cloudflare_workers_deployment_sparql_0" data-points="W3sieCI6MzY0LjI4MzMzMjgyNDcwNzAzLCJ5Ijo4NDd9LHsieCI6NTExLjM2MTQ1NzgyNDcwNzAzLCJ5Ijo4NDYuNX0seyJ4Ijo1MzYuMzYxNDU3ODI0NzA3LCJ5Ijo4NDYuNX0seyJ4Ijo1NjEuODYxNDU3ODI0NzA3LCJ5Ijo4NDUuNDc1MjQ2NTgxMjE3fV0=" data-look="classic" marker-end="url(#my-svg_flowchart-v2-pointEnd)"/></g><g class="edgeLabels"><g class="edgeLabel"><g class="label" data-id="L_client_cloudflare_workers_custom_domain_sparql_0" transform="translate(0, 0)"><text y="-10.1" text-anchor="middle"><tspan class="text-outer-tspan row" x="0" y="-0.1em" dy="1.1em" text-anchor="middle"/></text></g></g><g><rect class="background" style="stroke: none"/></g><g class="edgeLabel"><g class="label" data-id="L_cloudflare_workers_custom_domain_sparql_cloudflare_workers_deployment_sparql_0" transform="translate(0, 0)"><text y="-10.1" text-anchor="middle"><tspan class="text-outer-tspan row" x="0" y="-0.1em" dy="1.1em" text-anchor="middle"/></text></g></g><g><rect class="background" style="stroke: none"/></g><g class="edgeLabel"><g class="label" data-id="L_terraform_data_worker_bootstrap_cloudflare_worker_sparql_0" transform="translate(0, 0)"><text y="-10.1" text-anchor="middle"><tspan class="text-outer-tspan row" x="0" y="-0.1em" dy="1.1em" text-anchor="middle"/></text></g></g><g><rect class="background" style="stroke: none"/></g><g class="edgeLabel"><g class="label" data-id="L_cloudflare_worker_version_sparql_terraform_data_worker_bootstrap_0" transform="translate(0, 0)"><text y="-10.1" text-anchor="middle"><tspan class="text-outer-tspan row" x="0" y="-0.1em" dy="1.1em" text-anchor="middle"/></text></g></g><g><rect class="background" style="stroke: none"/></g><g class="edgeLabel"><g class="label" data-id="L_cloudflare_workers_deployment_sparql_cloudflare_worker_version_sparql_0" transform="translate(0, 0)"><text y="-10.1" text-anchor="middle"><tspan class="text-outer-tspan row" x="0" y="-0.1em" dy="1.1em" text-anchor="middle"/></text></g></g><g><rect class="background" style="stroke: none"/></g><g class="edgeLabel"><g class="label" data-id="L_terraform_data_container_app_cloudflare_workers_deployment_sparql_0" transform="translate(0, 0)"><text y="-10.1" text-anchor="middle"><tspan class="text-outer-tspan row" x="0" y="-0.1em" dy="1.1em" text-anchor="middle"/></text></g></g><g><rect class="background" style="stroke: none"/></g></g><g class="nodes"><g class="icon-shape default" id="my-svg-flowchart-client-0" data-look="classic" transform="translate(55.602603912353516, 104.5)"><g transform="translate(0,-18)"><path d="M47.577164466275356 0 C47.577164466275356 2.0700220381366883, 47.440327323274914 4.157753401768904, 47.170135228825345 6.210066114410065 C46.899943134375775 8.262378827051226, 46.491773026829634 10.314388528223207, 45.95601189957792 12.313876275846969 C45.42025077232621 14.313364023470731, 44.74773160394061 16.294541607270855, 43.95556846531508 18.20699260015264 C43.163405326689556 20.119443593034422, 42.238044086893105 21.995890561717662, 41.20303306782476 23.788582233137674 C40.16802204875642 25.581273904557687, 39.005651924920656 27.320883730240492, 37.74550235090502 28.963142628672706 C36.485352776889385 30.60540152710492, 35.105862244103 32.1784090033589, 33.64213562373095 33.64213562373095 C32.1784090033589 35.105862244103, 30.605401527104927 36.48535277688937, 28.963142628672717 37.74550235090501 C27.320883730240507 39.00565192492064, 25.581273904557694 40.16802204875641, 23.78858223313768 41.20303306782476 C21.99589056171767 42.23804408689311, 20.119443593034426 43.163405326689556, 18.206992600152642 43.95556846531508 C16.294541607270858 44.74773160394061, 14.313364023470733 45.42025077232621, 12.313876275846969 45.95601189957792 C10.314388528223205 46.491773026829634, 8.262378827051222 46.899943134375775, 6.21006611441006 47.170135228825345 C4.157753401768898 47.440327323274914, 2.070022038136682 47.577164466275356, -7.650991578560785e-15 47.577164466275356 C-2.070022038136697 47.577164466275356, -4.157753401768913 47.440327323274914, -6.210066114410076 47.170135228825345 C-8.26237882705124 46.899943134375775, -10.314388528223223 46.49177302682963, -12.313876275846985 45.956011899577916 C-14.313364023470747 45.420250772326206, -16.29454160727087 44.7477316039406, -18.206992600152653 43.955568465315075 C-20.119443593034436 43.16340532668955, -21.99589056171768 42.2380440868931, -23.78858223313769 41.203033067824755 C-25.581273904557698 40.16802204875641, -27.320883730240503 39.00565192492065, -28.963142628672713 37.745502350905014 C-30.605401527104924 36.48535277688938, -32.1784090033589 35.105862244103, -33.64213562373095 33.64213562373095 C-35.105862244103 32.1784090033589, -36.48535277688937 30.605401527104934, -37.74550235090501 28.963142628672724 C-39.00565192492064 27.320883730240514, -40.16802204875641 25.5812739045577, -41.203033067824755 23.788582233137692 C-42.2380440868931 21.995890561717683, -43.16340532668954 20.119443593034443, -43.95556846531507 18.206992600152663 C-44.74773160394059 16.294541607270883, -45.4202507723262 14.313364023470761, -45.95601189957791 12.313876275847003 C-46.49177302682962 10.314388528223244, -46.89994313437577 8.262378827051265, -47.170135228825345 6.210066114410106 C-47.44032732327492 4.157753401768947, -47.577164466275356 2.070022038136734, -47.577164466275356 4.808353296708253e-14 C-47.577164466275356 -2.070022038136638, -47.44032732327493 -4.157753401768851, -47.17013522882536 -6.210066114410011 C-46.89994313437579 -8.26237882705117, -46.49177302682965 -10.314388528223148, -45.95601189957794 -12.313876275846908 C-45.42025077232623 -14.313364023470669, -44.74773160394062 -16.294541607270787, -43.9555684653151 -18.20699260015257 C-43.163405326689585 -20.119443593034354, -42.23804408689314 -21.995890561717598, -41.203033067824805 -23.78858223313761 C-40.16802204875647 -25.581273904557623, -39.0056519249207 -27.32088373024043, -37.74550235090507 -28.963142628672642 C-36.48535277688944 -30.605401527104856, -35.105862244103065 -32.17840900335884, -33.642135623731015 -33.64213562373089 C-32.178409003358965 -35.10586224410294, -30.605401527105 -36.48535277688932, -28.96314262867279 -37.74550235090496 C-27.320883730240585 -39.00565192492059, -25.581273904557776 -40.168022048756356, -23.788582233137767 -41.203033067824705 C-21.995890561717758 -42.238044086893055, -20.119443593034525 -43.16340532668951, -18.206992600152745 -43.95556846531504 C-16.294541607270965 -44.74773160394057, -14.313364023470847 -45.42025077232617, -12.313876275847088 -45.95601189957789 C-10.31438852822333 -46.491773026829605, -8.262378827051352 -46.899943134375754, -6.210066114410193 -47.17013522882533 C-4.157753401769034 -47.44032732327491, -2.0700220381368215 -47.57716446627535, -1.355108155748279e-13 -47.577164466275356 C2.0700220381365506 -47.57716446627536, 4.157753401768764 -47.44032732327493, 6.210066114409924 -47.170135228825366 C8.262378827051084 -46.8999431343758, 10.314388528223063 -46.49177302682966, 12.313876275846825 -45.95601189957796 C14.313364023470587 -45.420250772326256, 16.29454160727071 -44.74773160394066, 18.206992600152493 -43.95556846531514 C20.119443593034276 -43.16340532668962, 21.995890561717523 -42.238044086893176, 23.788582233137536 -41.20303306782484 C25.58127390455755 -40.168022048756505, 27.32088373024036 -39.00565192492075, 28.963142628672575 -37.74550235090512 C30.60540152710479 -36.48535277688949, 32.17840900335877 -35.10586224410312, 33.64213562373083 -33.64213562373108 C35.10586224410289 -32.178409003359036, 36.48535277688926 -30.605401527105066, 37.7455023509049 -28.96314262867286 C39.00565192492054 -27.320883730240652, 40.16802204875631 -25.581273904557854, 41.20303306782466 -23.78858223313785 C42.23804408689301 -21.995890561717843, 43.16340532668947 -20.119443593034603, 43.955568465315004 -18.206992600152823 C44.74773160394054 -16.294541607271043, 45.42025077232615 -14.313364023470928, 45.95601189957787 -12.313876275847171 C46.491773026829584 -10.314388528223414, 46.89994313437574 -8.262378827051437, 47.17013522882532 -6.21006611441028 C47.44032732327491 -4.1577534017691224, 47.50932626003368 -1.0350110190686028, 47.577164466275356 -2.2293809818257324e-13 C47.64500267251703 1.035011019068157, 47.64500267251702 -1.0350110190683812, 47.577164466275356 0" stroke="none" stroke-width="0" fill="#ECECFF"/><path d="M47.577164466275356 0 C47.577164466275356 2.0700220381366883, 47.440327323274914 4.157753401768904, 47.170135228825345 6.210066114410065 C46.899943134375775 8.262378827051226, 46.491773026829634 10.314388528223207, 45.95601189957792 12.313876275846969 C45.42025077232621 14.313364023470731, 44.74773160394061 16.294541607270855, 43.95556846531508 18.20699260015264 C43.163405326689556 20.119443593034422, 42.238044086893105 21.995890561717662, 41.20303306782476 23.788582233137674 C40.16802204875642 25.581273904557687, 39.005651924920656 27.320883730240492, 37.74550235090502 28.963142628672706 C36.485352776889385 30.60540152710492, 35.105862244103 32.1784090033589, 33.64213562373095 33.64213562373095 C32.1784090033589 35.105862244103, 30.605401527104927 36.48535277688937, 28.963142628672717 37.74550235090501 C27.320883730240507 39.00565192492064, 25.581273904557694 40.16802204875641, 23.78858223313768 41.20303306782476 C21.99589056171767 42.23804408689311, 20.119443593034426 43.163405326689556, 18.206992600152642 43.95556846531508 C16.294541607270858 44.74773160394061, 14.313364023470733 45.42025077232621, 12.313876275846969 45.95601189957792 C10.314388528223205 46.491773026829634, 8.262378827051222 46.899943134375775, 6.21006611441006 47.170135228825345 C4.157753401768898 47.440327323274914, 2.070022038136682 47.577164466275356, -7.650991578560785e-15 47.577164466275356 C-2.070022038136697 47.577164466275356, -4.157753401768913 47.440327323274914, -6.210066114410076 47.170135228825345 C-8.26237882705124 46.899943134375775, -10.314388528223223 46.49177302682963, -12.313876275846985 45.956011899577916 C-14.313364023470747 45.420250772326206, -16.29454160727087 44.7477316039406, -18.206992600152653 43.955568465315075 C-20.119443593034436 43.16340532668955, -21.99589056171768 42.2380440868931, -23.78858223313769 41.203033067824755 C-25.581273904557698 40.16802204875641, -27.320883730240503 39.00565192492065, -28.963142628672713 37.745502350905014 C-30.605401527104924 36.48535277688938, -32.1784090033589 35.105862244103, -33.64213562373095 33.64213562373095 C-35.105862244103 32.1784090033589, -36.48535277688937 30.605401527104934, -37.74550235090501 28.963142628672724 C-39.00565192492064 27.320883730240514, -40.16802204875641 25.5812739045577, -41.203033067824755 23.788582233137692 C-42.2380440868931 21.995890561717683, -43.16340532668954 20.119443593034443, -43.95556846531507 18.206992600152663 C-44.74773160394059 16.294541607270883, -45.4202507723262 14.313364023470761, -45.95601189957791 12.313876275847003 C-46.49177302682962 10.314388528223244, -46.89994313437577 8.262378827051265, -47.170135228825345 6.210066114410106 C-47.44032732327492 4.157753401768947, -47.577164466275356 2.070022038136734, -47.577164466275356 4.808353296708253e-14 C-47.577164466275356 -2.070022038136638, -47.44032732327493 -4.157753401768851, -47.17013522882536 -6.210066114410011 C-46.89994313437579 -8.26237882705117, -46.49177302682965 -10.314388528223148, -45.95601189957794 -12.313876275846908 C-45.42025077232623 -14.313364023470669, -44.74773160394062 -16.294541607270787, -43.9555684653151 -18.20699260015257 C-43.163405326689585 -20.119443593034354, -42.23804408689314 -21.995890561717598, -41.203033067824805 -23.78858223313761 C-40.16802204875647 -25.581273904557623, -39.0056519249207 -27.32088373024043, -37.74550235090507 -28.963142628672642 C-36.48535277688944 -30.605401527104856, -35.105862244103065 -32.17840900335884, -33.642135623731015 -33.64213562373089 C-32.178409003358965 -35.10586224410294, -30.605401527105 -36.48535277688932, -28.96314262867279 -37.74550235090496 C-27.320883730240585 -39.00565192492059, -25.581273904557776 -40.168022048756356, -23.788582233137767 -41.203033067824705 C-21.995890561717758 -42.238044086893055, -20.119443593034525 -43.16340532668951, -18.206992600152745 -43.95556846531504 C-16.294541607270965 -44.74773160394057, -14.313364023470847 -45.42025077232617, -12.313876275847088 -45.95601189957789 C-10.31438852822333 -46.491773026829605, -8.262378827051352 -46.899943134375754, -6.210066114410193 -47.17013522882533 C-4.157753401769034 -47.44032732327491, -2.0700220381368215 -47.57716446627535, -1.355108155748279e-13 -47.577164466275356 C2.0700220381365506 -47.57716446627536, 4.157753401768764 -47.44032732327493, 6.210066114409924 -47.170135228825366 C8.262378827051084 -46.8999431343758, 10.314388528223063 -46.49177302682966, 12.313876275846825 -45.95601189957796 C14.313364023470587 -45.420250772326256, 16.29454160727071 -44.74773160394066, 18.206992600152493 -43.95556846531514 C20.119443593034276 -43.16340532668962, 21.995890561717523 -42.238044086893176, 23.788582233137536 -41.20303306782484 C25.58127390455755 -40.168022048756505, 27.32088373024036 -39.00565192492075, 28.963142628672575 -37.74550235090512 C30.60540152710479 -36.48535277688949, 32.17840900335877 -35.10586224410312, 33.64213562373083 -33.64213562373108 C35.10586224410289 -32.178409003359036, 36.48535277688926 -30.605401527105066, 37.7455023509049 -28.96314262867286 C39.00565192492054 -27.320883730240652, 40.16802204875631 -25.581273904557854, 41.20303306782466 -23.78858223313785 C42.23804408689301 -21.995890561717843, 43.16340532668947 -20.119443593034603, 43.955568465315004 -18.206992600152823 C44.74773160394054 -16.294541607271043, 45.42025077232615 -14.313364023470928, 45.95601189957787 -12.313876275847171 C46.491773026829584 -10.314388528223414, 46.89994313437574 -8.262378827051437, 47.17013522882532 -6.21006611441028 C47.44032732327491 -4.1577534017691224, 47.50932626003368 -1.0350110190686028, 47.577164466275356 -2.2293809818257324e-13 C47.64500267251703 1.035011019068157, 47.64500267251702 -1.0350110190683812, 47.577164466275356 0" stroke="#ECECFF" stroke-width="1.3" fill="none" stroke-dasharray="0 0"/></g><g class="label" style="" transform="translate(-22.453125,37.57716446627535)"><rect/><foreignObject width="44.90625" height="28"><div xmlns="http://www.w3.org/1999/xhtml" class="labelBkg" style="display: table-cell; white-space: nowrap; line-height: 1.5; max-width: 200px; text-align: center;"><span class="nodeLabel markdown-node-label"><p>Client</p></span></div></foreignObject></g><g transform="translate(-24,-42.006415367126465)" style="color: #9370DB;"><g><svg xmlns="http://www.w3.org/2000/svg" width="48" height="48" viewBox="0 0 16 16"><path d="M9.806 7.452a3.25 3.25 0 11-3.612-5.404 3.25 3.25 0 013.612 5.404zM6.793 9h2.42a5.442 5.442 0 013.736 1.475 4.908 4.908 0 011.551 3.55l-.5.475H2l-.5-.475a4.908 4.908 0 011.552-3.552A5.443 5.443 0 016.792 9z"/></svg></g></g><g><path d="M-47.577164466275356 -65.57716446627535 L47.577164466275356 -65.57716446627535 L47.577164466275356 65.57716446627535 L-47.577164466275356 65.57716446627535" stroke="none" stroke-width="0" fill="transparent"/></g></g><g class="icon-shape default" id="my-svg-flowchart-cloudflare_workers_custom_domain_sparql-2" data-look="classic" transform="translate(332.28333282470703, 104.5)"><g class="icon-shape2" transform="translate(0,-30)"><path d="M-26.5 -31.5 C-12.181043303478507 -31.5, 2.137913393042986 -31.5, 26.5 -31.5 C29.261423749153966 -31.5, 31.5 -29.261423749153966, 31.5 -26.5 C31.5 -8.092661888431756, 31.5 10.314676223136487, 31.5 26.5 C31.5 29.261423749153966, 29.261423749153966 31.5, 26.5 31.5 C10.532218167651443 31.5, -5.4355636646971135 31.5, -26.5 31.5 C-29.261423749153966 31.5, -31.5 29.261423749153966, -31.5 26.5 C-31.5 10.077121780347078, -31.5 -6.345756439305845, -31.5 -26.5 C-31.5 -29.261423749153966, -29.261423749153966 -31.5, -26.5 -31.5 C-26.5 -31.5, -26.5 -31.5, -26.5 -31.5" stroke="none" stroke-width="0" fill="#ECECFF"/><path d="M-26.5 -31.5 C-15.899761733878403 -31.5, -5.299523467756806 -31.5, 26.5 -31.5 M-26.5 -31.5 C-14.768349731992929 -31.5, -3.036699463985858 -31.5, 26.5 -31.5 M26.5 -31.5 C29.261423749153966 -31.5, 31.5 -29.261423749153966, 31.5 -26.5 M26.5 -31.5 C29.261423749153966 -31.5, 31.5 -29.261423749153966, 31.5 -26.5 M31.5 -26.5 C31.5 -9.02230813847855, 31.5 8.4553837230429, 31.5 26.5 M31.5 -26.5 C31.5 -7.810075731109826, 31.5 10.879848537780347, 31.5 26.5 M31.5 26.5 C31.5 29.261423749153966, 29.261423749153966 31.5, 26.5 31.5 M31.5 26.5 C31.5 29.261423749153966, 29.261423749153966 31.5, 26.5 31.5 M26.5 31.5 C14.650209233630449 31.5, 2.800418467260897 31.5, -26.5 31.5 M26.5 31.5 C14.065874529909342 31.5, 1.6317490598186843 31.5, -26.5 31.5 M-26.5 31.5 C-29.261423749153966 31.5, -31.5 29.261423749153966, -31.5 26.5 M-26.5 31.5 C-29.261423749153966 31.5, -31.5 29.261423749153966, -31.5 26.5 M-31.5 26.5 C-31.5 7.327678886521607, -31.5 -11.844642226956786, -31.5 -26.5 M-31.5 26.5 C-31.5 10.070047886203973, -31.5 -6.359904227592054, -31.5 -26.5 M-31.5 -26.5 C-31.5 -29.261423749153966, -29.261423749153966 -31.5, -26.5 -31.5 M-31.5 -26.5 C-31.5 -29.261423749153966, -29.261423749153966 -31.5, -26.5 -31.5 M-26.5 -31.5 C-26.5 -31.5, -26.5 -31.5, -26.5 -31.5 M-26.5 -31.5 C-26.5 -31.5, -26.5 -31.5, -26.5 -31.5" stroke="#ECECFF" stroke-width="1.3" fill="none" stroke-dasharray="0 0"/></g><g class="label" style="" transform="translate(-154.078125,9.5)"><rect/><foreignObject width="308.15625" height="52"><div xmlns="http://www.w3.org/1999/xhtml" class="labelBkg" style="display: table; white-space: break-spaces; line-height: 1.5; max-width: 200px; text-align: center; width: 200px;"><span class="nodeLabel markdown-node-label"><p>Custom domain<br />cloudflare_workers_custom_domain.sparql</p></span></div></foreignObject></g><g><path d="M-154.078125 -61.5 L154.078125 -61.5 L154.078125 61.5 L-154.078125 61.5" stroke="none" stroke-width="0" fill="transparent"/></g><g transform="translate(-24,-54)" style="color: #9370DB;"><g><svg xmlns="http://www.w3.org/2000/svg" width="48" height="48" viewBox="0 0 16 16"><path d="M14 10.793h-.85v-3.43H8.46v-2.18h.84l.5-.5V2l-.5-.5H6.605l-.5.5v2.683l.5.5h.855v2.18H2.85v3.43H2l-.5.5V14l.5.5h2.697l.5-.5v-2.707l-.5-.5H3.85v-2.43h3.61v2.43h-.855l-.5.5V14l.5.5H9.3l.5-.5v-2.707l-.5-.5h-.84v-2.43h3.692v2.43h-.847l-.5.5V14l.5.5H14l.5-.5v-2.707l-.5-.5zM7.105 2.5H8.8v1.695H7.105V2.5zm-2.908 11H2.5v-1.707h1.695l.002 1.707zm4.603 0H7.105v-1.707H8.8V13.5zm4.7 0h-1.695v-1.707H13.5V13.5z"/></svg></g></g></g><g class="icon-shape default" id="my-svg-flowchart-cloudflare_url_normalization_settings_this-4" data-look="classic" transform="translate(332.28333282470703, 277.5)"><g class="icon-shape2" transform="translate(0,-30)"><path d="M-26.5 -31.5 C-12.181043303478507 -31.5, 2.137913393042986 -31.5, 26.5 -31.5 C29.261423749153966 -31.5, 31.5 -29.261423749153966, 31.5 -26.5 C31.5 -8.092661888431756, 31.5 10.314676223136487, 31.5 26.5 C31.5 29.261423749153966, 29.261423749153966 31.5, 26.5 31.5 C10.532218167651443 31.5, -5.4355636646971135 31.5, -26.5 31.5 C-29.261423749153966 31.5, -31.5 29.261423749153966, -31.5 26.5 C-31.5 10.077121780347078, -31.5 -6.345756439305845, -31.5 -26.5 C-31.5 -29.261423749153966, -29.261423749153966 -31.5, -26.5 -31.5 C-26.5 -31.5, -26.5 -31.5, -26.5 -31.5" stroke="none" stroke-width="0" fill="#ECECFF"/><path d="M-26.5 -31.5 C-15.899761733878403 -31.5, -5.299523467756806 -31.5, 26.5 -31.5 M-26.5 -31.5 C-14.768349731992929 -31.5, -3.036699463985858 -31.5, 26.5 -31.5 M26.5 -31.5 C29.261423749153966 -31.5, 31.5 -29.261423749153966, 31.5 -26.5 M26.5 -31.5 C29.261423749153966 -31.5, 31.5 -29.261423749153966, 31.5 -26.5 M31.5 -26.5 C31.5 -9.02230813847855, 31.5 8.4553837230429, 31.5 26.5 M31.5 -26.5 C31.5 -7.810075731109826, 31.5 10.879848537780347, 31.5 26.5 M31.5 26.5 C31.5 29.261423749153966, 29.261423749153966 31.5, 26.5 31.5 M31.5 26.5 C31.5 29.261423749153966, 29.261423749153966 31.5, 26.5 31.5 M26.5 31.5 C14.650209233630449 31.5, 2.800418467260897 31.5, -26.5 31.5 M26.5 31.5 C14.065874529909342 31.5, 1.6317490598186843 31.5, -26.5 31.5 M-26.5 31.5 C-29.261423749153966 31.5, -31.5 29.261423749153966, -31.5 26.5 M-26.5 31.5 C-29.261423749153966 31.5, -31.5 29.261423749153966, -31.5 26.5 M-31.5 26.5 C-31.5 7.327678886521607, -31.5 -11.844642226956786, -31.5 -26.5 M-31.5 26.5 C-31.5 10.070047886203973, -31.5 -6.359904227592054, -31.5 -26.5 M-31.5 -26.5 C-31.5 -29.261423749153966, -29.261423749153966 -31.5, -26.5 -31.5 M-31.5 -26.5 C-31.5 -29.261423749153966, -29.261423749153966 -31.5, -26.5 -31.5 M-26.5 -31.5 C-26.5 -31.5, -26.5 -31.5, -26.5 -31.5 M-26.5 -31.5 C-26.5 -31.5, -26.5 -31.5, -26.5 -31.5" stroke="#ECECFF" stroke-width="1.3" fill="none" stroke-dasharray="0 0"/></g><g class="label" style="" transform="translate(-148.75,9.5)"><rect/><foreignObject width="297.5" height="52"><div xmlns="http://www.w3.org/1999/xhtml" class="labelBkg" style="display: table; white-space: break-spaces; line-height: 1.5; max-width: 200px; text-align: center; width: 200px;"><span class="nodeLabel markdown-node-label"><p>URL normalization<br />cloudflare_url_normalization_settings.this</p></span></div></foreignObject></g><g><path d="M-148.75 -61.5 L148.75 -61.5 L148.75 61.5 L-148.75 61.5" stroke="none" stroke-width="0" fill="transparent"/></g><g transform="translate(-24.840320587158203,-55.51049852371216)" style="color: #9370DB;"><g><svg xmlns="http://www.w3.org/2000/svg" width="48" height="48" viewBox="0 0 16 16"><path d="M1.5 3l.5-.5h7.5v1h-7v10h8v1H2l-.5-.5V3zM8 5.75H3.5v-1H8v1zm.5 2h-5v-1h5v1zm-1.5 2H3.5v-1H7v1z"/><path d="M9.873 3.256a2.74 2.74 0 0 0-1.287 2.253 2.74 2.74 0 0 0 1.8 2.643l.329.47.001 5.378h1.213l.001-5.378.329-.47a2.74 2.74 0 0 0 1.8-2.643 2.74 2.74 0 0 0-.556-1.585c-.202-.267-.45-.492-.731-.667l-.001 2.133-.5.5h-1.897l-.5-.5-.001-2.133zm-1.528.063a3.74 3.74 0 0 1 1.88-1.313l.647.478.001 2.405h.898l.001-2.405.647-.478a3.74 3.74 0 0 1 2.64 3.478 3.74 3.74 0 0 1-2.129 3.471l-.001 5.546-.5.5h-2.213l-.5-.5-.001-5.546a3.74 3.74 0 0 1-2.129-3.471 3.74 3.74 0 0 1 .759-2.164z"/></svg></g></g></g><g class="icon-shape default" id="my-svg-flowchart-cloudflare_ruleset_firewall-6" data-look="classic" transform="translate(332.28333282470703, 450.5)"><g class="icon-shape2" transform="translate(0,-30)"><path d="M-26.5 -31.5 C-12.181043303478507 -31.5, 2.137913393042986 -31.5, 26.5 -31.5 C29.261423749153966 -31.5, 31.5 -29.261423749153966, 31.5 -26.5 C31.5 -8.092661888431756, 31.5 10.314676223136487, 31.5 26.5 C31.5 29.261423749153966, 29.261423749153966 31.5, 26.5 31.5 C10.532218167651443 31.5, -5.4355636646971135 31.5, -26.5 31.5 C-29.261423749153966 31.5, -31.5 29.261423749153966, -31.5 26.5 C-31.5 10.077121780347078, -31.5 -6.345756439305845, -31.5 -26.5 C-31.5 -29.261423749153966, -29.261423749153966 -31.5, -26.5 -31.5 C-26.5 -31.5, -26.5 -31.5, -26.5 -31.5" stroke="none" stroke-width="0" fill="#ECECFF"/><path d="M-26.5 -31.5 C-15.899761733878403 -31.5, -5.299523467756806 -31.5, 26.5 -31.5 M-26.5 -31.5 C-14.768349731992929 -31.5, -3.036699463985858 -31.5, 26.5 -31.5 M26.5 -31.5 C29.261423749153966 -31.5, 31.5 -29.261423749153966, 31.5 -26.5 M26.5 -31.5 C29.261423749153966 -31.5, 31.5 -29.261423749153966, 31.5 -26.5 M31.5 -26.5 C31.5 -9.02230813847855, 31.5 8.4553837230429, 31.5 26.5 M31.5 -26.5 C31.5 -7.810075731109826, 31.5 10.879848537780347, 31.5 26.5 M31.5 26.5 C31.5 29.261423749153966, 29.261423749153966 31.5, 26.5 31.5 M31.5 26.5 C31.5 29.261423749153966, 29.261423749153966 31.5, 26.5 31.5 M26.5 31.5 C14.650209233630449 31.5, 2.800418467260897 31.5, -26.5 31.5 M26.5 31.5 C14.065874529909342 31.5, 1.6317490598186843 31.5, -26.5 31.5 M-26.5 31.5 C-29.261423749153966 31.5, -31.5 29.261423749153966, -31.5 26.5 M-26.5 31.5 C-29.261423749153966 31.5, -31.5 29.261423749153966, -31.5 26.5 M-31.5 26.5 C-31.5 7.327678886521607, -31.5 -11.844642226956786, -31.5 -26.5 M-31.5 26.5 C-31.5 10.070047886203973, -31.5 -6.359904227592054, -31.5 -26.5 M-31.5 -26.5 C-31.5 -29.261423749153966, -29.261423749153966 -31.5, -26.5 -31.5 M-31.5 -26.5 C-31.5 -29.261423749153966, -29.261423749153966 -31.5, -26.5 -31.5 M-26.5 -31.5 C-26.5 -31.5, -26.5 -31.5, -26.5 -31.5 M-26.5 -31.5 C-26.5 -31.5, -26.5 -31.5, -26.5 -31.5" stroke="#ECECFF" stroke-width="1.3" fill="none" stroke-dasharray="0 0"/></g><g class="label" style="" transform="translate(-92.265625,9.5)"><rect/><foreignObject width="184.53125" height="52"><div xmlns="http://www.w3.org/1999/xhtml" class="labelBkg" style="display: table-cell; white-space: nowrap; line-height: 1.5; max-width: 200px; text-align: center;"><span class="nodeLabel markdown-node-label"><p>WAF custom rules<br />cloudflare_ruleset.firewall</p></span></div></foreignObject></g><g><path d="M-92.265625 -61.5 L92.265625 -61.5 L92.265625 61.5 L-92.265625 61.5" stroke="none" stroke-width="0" fill="transparent"/></g><g transform="translate(-24,-54)" style="color: #9370DB;"><g><svg xmlns="http://www.w3.org/2000/svg" width="48" height="48" viewBox="0 0 64 64"><path d="m58 33.94 2-2v-12l-2-2h-8.4V8l-2-2H6L4 8v12l2 2h8.39v8H6l-2 2v12l2 2h8.39v10l2 2H58l2-2V44l-2-2h-8.4v-8l8.4-.06Zm-2-4H39.19V22H56v7.94ZM45.6 10v8H28.8v-8h16.8ZM8 10h16.8v8H8v-8Zm10.39 12h16.8v8h-16.8v-8ZM8 33.94h16.8v8H8v-8ZM18.39 54v-8h16.8v8h-16.8ZM56 54H39.19v-8H56v8ZM45.61 42H28.8v-8h16.8l.01 8Z"/></svg></g></g></g><g class="icon-shape default" id="my-svg-flowchart-cloudflare_ruleset_ratelimit-8" data-look="classic" transform="translate(332.28333282470703, 623.5)"><g class="icon-shape2" transform="translate(0,-30)"><path d="M-26.5 -31.5 C-12.181043303478507 -31.5, 2.137913393042986 -31.5, 26.5 -31.5 C29.261423749153966 -31.5, 31.5 -29.261423749153966, 31.5 -26.5 C31.5 -8.092661888431756, 31.5 10.314676223136487, 31.5 26.5 C31.5 29.261423749153966, 29.261423749153966 31.5, 26.5 31.5 C10.532218167651443 31.5, -5.4355636646971135 31.5, -26.5 31.5 C-29.261423749153966 31.5, -31.5 29.261423749153966, -31.5 26.5 C-31.5 10.077121780347078, -31.5 -6.345756439305845, -31.5 -26.5 C-31.5 -29.261423749153966, -29.261423749153966 -31.5, -26.5 -31.5 C-26.5 -31.5, -26.5 -31.5, -26.5 -31.5" stroke="none" stroke-width="0" fill="#ECECFF"/><path d="M-26.5 -31.5 C-15.899761733878403 -31.5, -5.299523467756806 -31.5, 26.5 -31.5 M-26.5 -31.5 C-14.768349731992929 -31.5, -3.036699463985858 -31.5, 26.5 -31.5 M26.5 -31.5 C29.261423749153966 -31.5, 31.5 -29.261423749153966, 31.5 -26.5 M26.5 -31.5 C29.261423749153966 -31.5, 31.5 -29.261423749153966, 31.5 -26.5 M31.5 -26.5 C31.5 -9.02230813847855, 31.5 8.4553837230429, 31.5 26.5 M31.5 -26.5 C31.5 -7.810075731109826, 31.5 10.879848537780347, 31.5 26.5 M31.5 26.5 C31.5 29.261423749153966, 29.261423749153966 31.5, 26.5 31.5 M31.5 26.5 C31.5 29.261423749153966, 29.261423749153966 31.5, 26.5 31.5 M26.5 31.5 C14.650209233630449 31.5, 2.800418467260897 31.5, -26.5 31.5 M26.5 31.5 C14.065874529909342 31.5, 1.6317490598186843 31.5, -26.5 31.5 M-26.5 31.5 C-29.261423749153966 31.5, -31.5 29.261423749153966, -31.5 26.5 M-26.5 31.5 C-29.261423749153966 31.5, -31.5 29.261423749153966, -31.5 26.5 M-31.5 26.5 C-31.5 7.327678886521607, -31.5 -11.844642226956786, -31.5 -26.5 M-31.5 26.5 C-31.5 10.070047886203973, -31.5 -6.359904227592054, -31.5 -26.5 M-31.5 -26.5 C-31.5 -29.261423749153966, -29.261423749153966 -31.5, -26.5 -31.5 M-31.5 -26.5 C-31.5 -29.261423749153966, -29.261423749153966 -31.5, -26.5 -31.5 M-26.5 -31.5 C-26.5 -31.5, -26.5 -31.5, -26.5 -31.5 M-26.5 -31.5 C-26.5 -31.5, -26.5 -31.5, -26.5 -31.5" stroke="#ECECFF" stroke-width="1.3" fill="none" stroke-dasharray="0 0"/></g><g class="label" style="" transform="translate(-95.375,9.5)"><rect/><foreignObject width="190.75" height="52"><div xmlns="http://www.w3.org/1999/xhtml" class="labelBkg" style="display: table-cell; white-space: nowrap; line-height: 1.5; max-width: 200px; text-align: center;"><span class="nodeLabel markdown-node-label"><p>Rate limiting<br />cloudflare_ruleset.ratelimit</p></span></div></foreignObject></g><g><path d="M-95.375 -61.5 L95.375 -61.5 L95.375 61.5 L-95.375 61.5" stroke="none" stroke-width="0" fill="transparent"/></g><g transform="translate(-23.99996852874756,-53.96655082702637)" style="color: #9370DB;"><g><svg xmlns="http://www.w3.org/2000/svg" width="48" height="48" viewBox="0 0 16 16"><path d="M8.50001 2.5H9.46501V1.5H6.53501V2.5H7.50001V3.25C6.05722 3.37876 4.71972 4.05914 3.76607 5.14944C2.81242 6.23973 2.31613 7.6559 2.38057 9.10298C2.44502 10.5501 3.06522 11.9165 4.11201 12.9177C5.1588 13.9189 6.55149 14.4777 8.00001 14.4777C9.44852 14.4777 10.8412 13.9189 11.888 12.9177C12.9348 11.9165 13.555 10.5501 13.6194 9.10298C13.6839 7.6559 13.1876 6.23973 12.2339 5.14944C11.2803 4.05914 9.94279 3.37876 8.50001 3.25V2.5ZM8.00001 13.45C7.08527 13.45 6.19107 13.1787 5.43049 12.6705C4.66992 12.1623 4.07712 11.44 3.72706 10.5949C3.37701 9.7498 3.28542 8.81987 3.46387 7.92271C3.64233 7.02555 4.08282 6.20145 4.72964 5.55463C5.37645 4.90781 6.20055 4.46732 7.09771 4.28887C7.99487 4.11041 8.92481 4.202 9.76992 4.55206C10.615 4.90211 11.3373 5.49491 11.8456 6.25549C12.3538 7.01607 12.625 7.91026 12.625 8.825C12.6237 10.0512 12.136 11.2268 11.2689 12.0939C10.4018 12.961 9.22623 13.4487 8.00001 13.45Z"/><path d="M10.1657 5.86256L5.1286 10.8699L5.83361 11.5791L10.8707 6.57176L10.1657 5.86256Z"/></svg></g></g></g><g class="icon-shape default" id="my-svg-flowchart-cloudflare_worker_sparql-10" data-look="classic" transform="translate(1553.775520324707, 836.5)"><g class="icon-shape2" transform="translate(0,-30)"><path d="M-26.5 -31.5 C-12.181043303478507 -31.5, 2.137913393042986 -31.5, 26.5 -31.5 C29.261423749153966 -31.5, 31.5 -29.261423749153966, 31.5 -26.5 C31.5 -8.092661888431756, 31.5 10.314676223136487, 31.5 26.5 C31.5 29.261423749153966, 29.261423749153966 31.5, 26.5 31.5 C10.532218167651443 31.5, -5.4355636646971135 31.5, -26.5 31.5 C-29.261423749153966 31.5, -31.5 29.261423749153966, -31.5 26.5 C-31.5 10.077121780347078, -31.5 -6.345756439305845, -31.5 -26.5 C-31.5 -29.261423749153966, -29.261423749153966 -31.5, -26.5 -31.5 C-26.5 -31.5, -26.5 -31.5, -26.5 -31.5" stroke="none" stroke-width="0" fill="#ECECFF"/><path d="M-26.5 -31.5 C-15.899761733878403 -31.5, -5.299523467756806 -31.5, 26.5 -31.5 M-26.5 -31.5 C-14.768349731992929 -31.5, -3.036699463985858 -31.5, 26.5 -31.5 M26.5 -31.5 C29.261423749153966 -31.5, 31.5 -29.261423749153966, 31.5 -26.5 M26.5 -31.5 C29.261423749153966 -31.5, 31.5 -29.261423749153966, 31.5 -26.5 M31.5 -26.5 C31.5 -9.02230813847855, 31.5 8.4553837230429, 31.5 26.5 M31.5 -26.5 C31.5 -7.810075731109826, 31.5 10.879848537780347, 31.5 26.5 M31.5 26.5 C31.5 29.261423749153966, 29.261423749153966 31.5, 26.5 31.5 M31.5 26.5 C31.5 29.261423749153966, 29.261423749153966 31.5, 26.5 31.5 M26.5 31.5 C14.650209233630449 31.5, 2.800418467260897 31.5, -26.5 31.5 M26.5 31.5 C14.065874529909342 31.5, 1.6317490598186843 31.5, -26.5 31.5 M-26.5 31.5 C-29.261423749153966 31.5, -31.5 29.261423749153966, -31.5 26.5 M-26.5 31.5 C-29.261423749153966 31.5, -31.5 29.261423749153966, -31.5 26.5 M-31.5 26.5 C-31.5 7.327678886521607, -31.5 -11.844642226956786, -31.5 -26.5 M-31.5 26.5 C-31.5 10.070047886203973, -31.5 -6.359904227592054, -31.5 -26.5 M-31.5 -26.5 C-31.5 -29.261423749153966, -29.261423749153966 -31.5, -26.5 -31.5 M-31.5 -26.5 C-31.5 -29.261423749153966, -29.261423749153966 -31.5, -26.5 -31.5 M-26.5 -31.5 C-26.5 -31.5, -26.5 -31.5, -26.5 -31.5 M-26.5 -31.5 C-26.5 -31.5, -26.5 -31.5, -26.5 -31.5" stroke="#ECECFF" stroke-width="1.3" fill="none" stroke-dasharray="0 0"/></g><g class="label" style="" transform="translate(-88.7109375,9.5)"><rect/><foreignObject width="177.421875" height="52"><div xmlns="http://www.w3.org/1999/xhtml" class="labelBkg" style="display: table-cell; white-space: nowrap; line-height: 1.5; max-width: 200px; text-align: center;"><span class="nodeLabel markdown-node-label"><p>Worker<br />cloudflare_worker.sparql</p></span></div></foreignObject></g><g><path d="M-88.7109375 -61.5 L88.7109375 -61.5 L88.7109375 61.5 L-88.7109375 61.5" stroke="none" stroke-width="0" fill="transparent"/></g><g transform="translate(-24.009003162384033,-53.75700235366821)" style="color: #9370DB;"><g><svg xmlns="http://www.w3.org/2000/svg" width="48" height="48" viewBox="0 0 16 16"><path d="M6.07 1.92h1.238l4.466 6.103-4.355 5.896H6.176l4.357-5.899-4.464-6.1z"/><path d="M3.029 7.992l3.213 4.302-.62.84-3.62-4.847.003-.603 3.604-4.711.616.841-3.196 4.178zM9.7 1.92H8.447l4.53 6.026-4.532 5.973h1.256l4.301-5.67.002-.602-4.306-5.728z"/><path d="M7.25 6v1.5h1.5v1h-1.5V10h-1V8.5h-1.5v-1h1.5V6h1z"/></svg></g></g></g><g class="icon-shape default" id="my-svg-flowchart-terraform_data_worker_bootstrap-12" data-look="classic" transform="translate(1296.564582824707, 836.5)"><g class="icon-shape2" transform="translate(0,-30)"><path d="M-26.5 -31.5 C-12.181043303478507 -31.5, 2.137913393042986 -31.5, 26.5 -31.5 C29.261423749153966 -31.5, 31.5 -29.261423749153966, 31.5 -26.5 C31.5 -8.092661888431756, 31.5 10.314676223136487, 31.5 26.5 C31.5 29.261423749153966, 29.261423749153966 31.5, 26.5 31.5 C10.532218167651443 31.5, -5.4355636646971135 31.5, -26.5 31.5 C-29.261423749153966 31.5, -31.5 29.261423749153966, -31.5 26.5 C-31.5 10.077121780347078, -31.5 -6.345756439305845, -31.5 -26.5 C-31.5 -29.261423749153966, -29.261423749153966 -31.5, -26.5 -31.5 C-26.5 -31.5, -26.5 -31.5, -26.5 -31.5" stroke="none" stroke-width="0" fill="#ECECFF"/><path d="M-26.5 -31.5 C-15.899761733878403 -31.5, -5.299523467756806 -31.5, 26.5 -31.5 M-26.5 -31.5 C-14.768349731992929 -31.5, -3.036699463985858 -31.5, 26.5 -31.5 M26.5 -31.5 C29.261423749153966 -31.5, 31.5 -29.261423749153966, 31.5 -26.5 M26.5 -31.5 C29.261423749153966 -31.5, 31.5 -29.261423749153966, 31.5 -26.5 M31.5 -26.5 C31.5 -9.02230813847855, 31.5 8.4553837230429, 31.5 26.5 M31.5 -26.5 C31.5 -7.810075731109826, 31.5 10.879848537780347, 31.5 26.5 M31.5 26.5 C31.5 29.261423749153966, 29.261423749153966 31.5, 26.5 31.5 M31.5 26.5 C31.5 29.261423749153966, 29.261423749153966 31.5, 26.5 31.5 M26.5 31.5 C14.650209233630449 31.5, 2.800418467260897 31.5, -26.5 31.5 M26.5 31.5 C14.065874529909342 31.5, 1.6317490598186843 31.5, -26.5 31.5 M-26.5 31.5 C-29.261423749153966 31.5, -31.5 29.261423749153966, -31.5 26.5 M-26.5 31.5 C-29.261423749153966 31.5, -31.5 29.261423749153966, -31.5 26.5 M-31.5 26.5 C-31.5 7.327678886521607, -31.5 -11.844642226956786, -31.5 -26.5 M-31.5 26.5 C-31.5 10.070047886203973, -31.5 -6.359904227592054, -31.5 -26.5 M-31.5 -26.5 C-31.5 -29.261423749153966, -29.261423749153966 -31.5, -26.5 -31.5 M-31.5 -26.5 C-31.5 -29.261423749153966, -29.261423749153966 -31.5, -26.5 -31.5 M-26.5 -31.5 C-26.5 -31.5, -26.5 -31.5, -26.5 -31.5 M-26.5 -31.5 C-26.5 -31.5, -26.5 -31.5, -26.5 -31.5" stroke="#ECECFF" stroke-width="1.3" fill="none" stroke-dasharray="0 0"/></g><g class="label" style="" transform="translate(-118.5,9.5)"><rect/><foreignObject width="237" height="52"><div xmlns="http://www.w3.org/1999/xhtml" class="labelBkg" style="display: table; white-space: break-spaces; line-height: 1.5; max-width: 200px; text-align: center; width: 200px;"><span class="nodeLabel markdown-node-label"><p>Durable Object class<br />terraform_data.worker_bootstrap</p></span></div></foreignObject></g><g><path d="M-118.5 -61.5 L118.5 -61.5 L118.5 61.5 L-118.5 61.5" stroke="none" stroke-width="0" fill="transparent"/></g><g transform="translate(-24.084003448486328,-53.99992752075195)" style="color: #9370DB;"><g><svg xmlns="http://www.w3.org/2000/svg" width="48" height="48" viewBox="0 0 16 16"><path d="M5.873 4.855a.75.75 0 10-1.23.859.75.75 0 001.23-.859zM11.364 11.352a.75.75 0 11-.858-1.23.75.75 0 01.858 1.23z"/><path fill-rule="evenodd" d="M8.053 1.5h-.05a6.5 6.5 0 10.05 0zM5.677 3.016A5.499 5.499 0 002.526 7.5h1.95c.012-.298.033-.591.064-.878l1 .06c-.03.265-.051.538-.062.818H7.5V2.63c-.446.202-.869.645-1.225 1.352a5.32 5.32 0 00-.068.142l-.969-.286a5.48 5.48 0 01.44-.822zM7.5 8.5H5.478c.056 1.396.348 2.625.797 3.518.356.707.779 1.15 1.225 1.352V8.5zm-1.823 4.484a5.471 5.471 0 01-.295-.517C4.85 11.41 4.534 10.02 4.477 8.5H2.526a5.502 5.502 0 003.151 4.484zm4.89-.118A5.5 5.5 0 0013.48 8.5h-1.787c-.012.305-.034.604-.066.897l-1-.06c.032-.27.053-.55.065-.837H8.5v4.935c.508-.16.993-.621 1.394-1.417l.063-.13.968.287a5.582 5.582 0 01-.36.692zm.125-5.366H8.5V2.565c.508.16.993.621 1.394 1.417.45.893.741 2.122.798 3.518zm1 0c-.056-1.519-.372-2.91-.905-3.968a5.576 5.576 0 00-.22-.398A5.498 5.498 0 0113.48 7.5h-1.787z"/></svg></g></g></g><g class="icon-shape default" id="my-svg-flowchart-cloudflare_worker_version_sparql-14" data-look="classic" transform="translate(1008.673957824707, 836.5)"><g class="icon-shape2" transform="translate(0,-30)"><path d="M-26.5 -31.5 C-12.181043303478507 -31.5, 2.137913393042986 -31.5, 26.5 -31.5 C29.261423749153966 -31.5, 31.5 -29.261423749153966, 31.5 -26.5 C31.5 -8.092661888431756, 31.5 10.314676223136487, 31.5 26.5 C31.5 29.261423749153966, 29.261423749153966 31.5, 26.5 31.5 C10.532218167651443 31.5, -5.4355636646971135 31.5, -26.5 31.5 C-29.261423749153966 31.5, -31.5 29.261423749153966, -31.5 26.5 C-31.5 10.077121780347078, -31.5 -6.345756439305845, -31.5 -26.5 C-31.5 -29.261423749153966, -29.261423749153966 -31.5, -26.5 -31.5 C-26.5 -31.5, -26.5 -31.5, -26.5 -31.5" stroke="none" stroke-width="0" fill="#ECECFF"/><path d="M-26.5 -31.5 C-15.899761733878403 -31.5, -5.299523467756806 -31.5, 26.5 -31.5 M-26.5 -31.5 C-14.768349731992929 -31.5, -3.036699463985858 -31.5, 26.5 -31.5 M26.5 -31.5 C29.261423749153966 -31.5, 31.5 -29.261423749153966, 31.5 -26.5 M26.5 -31.5 C29.261423749153966 -31.5, 31.5 -29.261423749153966, 31.5 -26.5 M31.5 -26.5 C31.5 -9.02230813847855, 31.5 8.4553837230429, 31.5 26.5 M31.5 -26.5 C31.5 -7.810075731109826, 31.5 10.879848537780347, 31.5 26.5 M31.5 26.5 C31.5 29.261423749153966, 29.261423749153966 31.5, 26.5 31.5 M31.5 26.5 C31.5 29.261423749153966, 29.261423749153966 31.5, 26.5 31.5 M26.5 31.5 C14.650209233630449 31.5, 2.800418467260897 31.5, -26.5 31.5 M26.5 31.5 C14.065874529909342 31.5, 1.6317490598186843 31.5, -26.5 31.5 M-26.5 31.5 C-29.261423749153966 31.5, -31.5 29.261423749153966, -31.5 26.5 M-26.5 31.5 C-29.261423749153966 31.5, -31.5 29.261423749153966, -31.5 26.5 M-31.5 26.5 C-31.5 7.327678886521607, -31.5 -11.844642226956786, -31.5 -26.5 M-31.5 26.5 C-31.5 10.070047886203973, -31.5 -6.359904227592054, -31.5 -26.5 M-31.5 -26.5 C-31.5 -29.261423749153966, -29.261423749153966 -31.5, -26.5 -31.5 M-31.5 -26.5 C-31.5 -29.261423749153966, -29.261423749153966 -31.5, -26.5 -31.5 M-26.5 -31.5 C-26.5 -31.5, -26.5 -31.5, -26.5 -31.5 M-26.5 -31.5 C-26.5 -31.5, -26.5 -31.5, -26.5 -31.5" stroke="#ECECFF" stroke-width="1.3" fill="none" stroke-dasharray="0 0"/></g><g class="label" style="" transform="translate(-119.390625,9.5)"><rect/><foreignObject width="238.78125" height="52"><div xmlns="http://www.w3.org/1999/xhtml" class="labelBkg" style="display: table; white-space: break-spaces; line-height: 1.5; max-width: 200px; text-align: center; width: 200px;"><span class="nodeLabel markdown-node-label"><p>Worker version<br />cloudflare_worker_version.sparql</p></span></div></foreignObject></g><g><path d="M-119.390625 -61.5 L119.390625 -61.5 L119.390625 61.5 L-119.390625 61.5" stroke="none" stroke-width="0" fill="transparent"/></g><g transform="translate(-24,-54)" style="color: #9370DB;"><g><svg xmlns="http://www.w3.org/2000/svg" width="48" height="48" viewBox="0 0 16 16"><path d="M14.568 2.25H5.932l-.432.444v10.612l.432.444h8.636l.432-.444V2.694l-.432-.444zM14 12.75H6.5v-9.5H14v9.5zM3.25 3.375l.5-.625H5v1.004h-.75v8.742H5V13.5H3.75l-.5-.5V3.375zM1 4.125l.5-.625h1.25v1H2V12h.75v1H1.625L1 12.375v-8.25z"/></svg></g></g></g><g class="icon-shape default" id="my-svg-flowchart-cloudflare_workers_deployment_sparql-16" data-look="classic" transform="translate(700.322395324707, 836.5)"><g class="icon-shape2" transform="translate(0,-30)"><path d="M-26.5 -31.5 C-12.181043303478507 -31.5, 2.137913393042986 -31.5, 26.5 -31.5 C29.261423749153966 -31.5, 31.5 -29.261423749153966, 31.5 -26.5 C31.5 -8.092661888431756, 31.5 10.314676223136487, 31.5 26.5 C31.5 29.261423749153966, 29.261423749153966 31.5, 26.5 31.5 C10.532218167651443 31.5, -5.4355636646971135 31.5, -26.5 31.5 C-29.261423749153966 31.5, -31.5 29.261423749153966, -31.5 26.5 C-31.5 10.077121780347078, -31.5 -6.345756439305845, -31.5 -26.5 C-31.5 -29.261423749153966, -29.261423749153966 -31.5, -26.5 -31.5 C-26.5 -31.5, -26.5 -31.5, -26.5 -31.5" stroke="none" stroke-width="0" fill="#ECECFF"/><path d="M-26.5 -31.5 C-15.899761733878403 -31.5, -5.299523467756806 -31.5, 26.5 -31.5 M-26.5 -31.5 C-14.768349731992929 -31.5, -3.036699463985858 -31.5, 26.5 -31.5 M26.5 -31.5 C29.261423749153966 -31.5, 31.5 -29.261423749153966, 31.5 -26.5 M26.5 -31.5 C29.261423749153966 -31.5, 31.5 -29.261423749153966, 31.5 -26.5 M31.5 -26.5 C31.5 -9.02230813847855, 31.5 8.4553837230429, 31.5 26.5 M31.5 -26.5 C31.5 -7.810075731109826, 31.5 10.879848537780347, 31.5 26.5 M31.5 26.5 C31.5 29.261423749153966, 29.261423749153966 31.5, 26.5 31.5 M31.5 26.5 C31.5 29.261423749153966, 29.261423749153966 31.5, 26.5 31.5 M26.5 31.5 C14.650209233630449 31.5, 2.800418467260897 31.5, -26.5 31.5 M26.5 31.5 C14.065874529909342 31.5, 1.6317490598186843 31.5, -26.5 31.5 M-26.5 31.5 C-29.261423749153966 31.5, -31.5 29.261423749153966, -31.5 26.5 M-26.5 31.5 C-29.261423749153966 31.5, -31.5 29.261423749153966, -31.5 26.5 M-31.5 26.5 C-31.5 7.327678886521607, -31.5 -11.844642226956786, -31.5 -26.5 M-31.5 26.5 C-31.5 10.070047886203973, -31.5 -6.359904227592054, -31.5 -26.5 M-31.5 -26.5 C-31.5 -29.261423749153966, -29.261423749153966 -31.5, -26.5 -31.5 M-31.5 -26.5 C-31.5 -29.261423749153966, -29.261423749153966 -31.5, -26.5 -31.5 M-26.5 -31.5 C-26.5 -31.5, -26.5 -31.5, -26.5 -31.5 M-26.5 -31.5 C-26.5 -31.5, -26.5 -31.5, -26.5 -31.5" stroke="#ECECFF" stroke-width="1.3" fill="none" stroke-dasharray="0 0"/></g><g class="label" style="" transform="translate(-138.9609375,9.5)"><rect/><foreignObject width="277.921875" height="52"><div xmlns="http://www.w3.org/1999/xhtml" class="labelBkg" style="display: table; white-space: break-spaces; line-height: 1.5; max-width: 200px; text-align: center; width: 200px;"><span class="nodeLabel markdown-node-label"><p>Deployment<br />cloudflare_workers_deployment.sparql</p></span></div></foreignObject></g><g><path d="M-138.9609375 -61.5 L138.9609375 -61.5 L138.9609375 61.5 L-138.9609375 61.5" stroke="none" stroke-width="0" fill="transparent"/></g><g transform="translate(-24.002613067626953,-52.33017921447754)" style="color: #9370DB;"><g><svg xmlns="http://www.w3.org/2000/svg" width="48" height="48" viewBox="0 0 16 16"><g clip-path="url(#cf-icon-1)"><path d="M14.966 7.211a2.91 2.91 0 00-2-.68 4.822 4.822 0 00-9.243-1.147A3.41 3.41 0 001.3 6.18 3.65 3.65 0 000 8.938a3.562 3.562 0 003.554 3.555H6.5v-1H3.547A2.559 2.559 0 011 8.938a2.64 2.64 0 01.943-1.992 2.413 2.413 0 012.032-.527l.435.075.13-.422a3.821 3.821 0 017.47 1.016l.017.57.563-.091a2.071 2.071 0 011.729.404A2.029 2.029 0 0115 9.508a1.987 1.987 0 01-1.985 1.985h-.032c-.061.001-.428.006-2.483.006v1c1.93 0 2.392-.004 2.515-.007a3.01 3.01 0 001.951-5.282v.001z"/><path d="M10.95 9.456l-2.46-2.5-2.46 2.5.712.701L7.99 8.89v3.62h1v-3.62l1.248 1.268.713-.701z"/></g><defs><clipPath id="cf-icon-1"><path d="M0 0h16v16H0z"/></clipPath></defs></svg></g></g></g><g class="icon-shape default" id="my-svg-flowchart-terraform_data_container_app-18" data-look="classic" transform="translate(332.28333282470703, 846.5)"><g class="icon-shape2" transform="translate(0,-30)"><path d="M-26.5 -31.5 C-12.181043303478507 -31.5, 2.137913393042986 -31.5, 26.5 -31.5 C29.261423749153966 -31.5, 31.5 -29.261423749153966, 31.5 -26.5 C31.5 -8.092661888431756, 31.5 10.314676223136487, 31.5 26.5 C31.5 29.261423749153966, 29.261423749153966 31.5, 26.5 31.5 C10.532218167651443 31.5, -5.4355636646971135 31.5, -26.5 31.5 C-29.261423749153966 31.5, -31.5 29.261423749153966, -31.5 26.5 C-31.5 10.077121780347078, -31.5 -6.345756439305845, -31.5 -26.5 C-31.5 -29.261423749153966, -29.261423749153966 -31.5, -26.5 -31.5 C-26.5 -31.5, -26.5 -31.5, -26.5 -31.5" stroke="none" stroke-width="0" fill="#ECECFF"/><path d="M-26.5 -31.5 C-15.899761733878403 -31.5, -5.299523467756806 -31.5, 26.5 -31.5 M-26.5 -31.5 C-14.768349731992929 -31.5, -3.036699463985858 -31.5, 26.5 -31.5 M26.5 -31.5 C29.261423749153966 -31.5, 31.5 -29.261423749153966, 31.5 -26.5 M26.5 -31.5 C29.261423749153966 -31.5, 31.5 -29.261423749153966, 31.5 -26.5 M31.5 -26.5 C31.5 -9.02230813847855, 31.5 8.4553837230429, 31.5 26.5 M31.5 -26.5 C31.5 -7.810075731109826, 31.5 10.879848537780347, 31.5 26.5 M31.5 26.5 C31.5 29.261423749153966, 29.261423749153966 31.5, 26.5 31.5 M31.5 26.5 C31.5 29.261423749153966, 29.261423749153966 31.5, 26.5 31.5 M26.5 31.5 C14.650209233630449 31.5, 2.800418467260897 31.5, -26.5 31.5 M26.5 31.5 C14.065874529909342 31.5, 1.6317490598186843 31.5, -26.5 31.5 M-26.5 31.5 C-29.261423749153966 31.5, -31.5 29.261423749153966, -31.5 26.5 M-26.5 31.5 C-29.261423749153966 31.5, -31.5 29.261423749153966, -31.5 26.5 M-31.5 26.5 C-31.5 7.327678886521607, -31.5 -11.844642226956786, -31.5 -26.5 M-31.5 26.5 C-31.5 10.070047886203973, -31.5 -6.359904227592054, -31.5 -26.5 M-31.5 -26.5 C-31.5 -29.261423749153966, -29.261423749153966 -31.5, -26.5 -31.5 M-31.5 -26.5 C-31.5 -29.261423749153966, -29.261423749153966 -31.5, -26.5 -31.5 M-26.5 -31.5 C-26.5 -31.5, -26.5 -31.5, -26.5 -31.5 M-26.5 -31.5 C-26.5 -31.5, -26.5 -31.5, -26.5 -31.5" stroke="#ECECFF" stroke-width="1.3" fill="none" stroke-dasharray="0 0"/></g><g class="label" style="" transform="translate(-107.3984375,9.5)"><rect/><foreignObject width="214.796875" height="52"><div xmlns="http://www.w3.org/1999/xhtml" class="labelBkg" style="display: table; white-space: break-spaces; line-height: 1.5; max-width: 200px; text-align: center; width: 200px;"><span class="nodeLabel markdown-node-label"><p>Container<br />terraform_data.container_app</p></span></div></foreignObject></g><g><path d="M-107.3984375 -61.5 L107.3984375 -61.5 L107.3984375 61.5 L-107.3984375 61.5" stroke="none" stroke-width="0" fill="transparent"/></g><g transform="translate(-23.553001880645752,-54.00000190734863)" style="color: #9370DB;"><g><svg xmlns="http://www.w3.org/2000/svg" width="48" height="48" viewBox="0 0 16 16"><path d="m3.1 10.71 4.25 2.428V8.29L3.1 5.861v4.849Zm5.25-2.42v4.848l4.25-2.428V5.86L8.35 8.29ZM3.609 5l4.243 2.424L12.093 5 7.85 2.576 3.608 5Zm9.993 6-.252.434-5.25 3h-.496l-5.25-3L2.1 11V5l.252-.434 5.25-3h.496l5.25 3L13.6 5v6Z"/></svg></g></g></g></g></g></g><defs><filter id="my-svg-drop-shadow" height="130%" width="130%"><feDropShadow dx="4" dy="4" stdDeviation="0" flood-opacity="0.06" flood-color="#000000"/></filter></defs><defs><filter id="my-svg-drop-shadow-small" height="150%" width="150%"><feDropShadow dx="2" dy="2" stdDeviation="0" flood-opacity="0.06" flood-color="#000000"/></filter></defs></svg>